<svg width="170" height="41" viewBox="0 0 170 41" fill="none" xmlns="http://www.w3.org/2000/svg">
<rect x="4" y="5" width="40" height="32" rx="16" stroke="#FF7C08" stroke-width="8"/>
<g filter="url(#filter0_b)">
<path fill-rule="evenodd" clip-rule="evenodd" d="M28 1C16.9543 1 8 9.95431 8 21C8 32.0457 16.9543 41 28 41H36C47.0457 41 56 32.0457 56 21C56 9.95431 47.0457 1 36 1H28ZM28 9C21.9249 9 17 13.9249 17 20V22C17 28.0751 21.9249 33 28 33C34.0751 33 39 28.0751 39 22V20C39 13.9249 34.0751 9 28 9Z" fill="#FFCE84" fill-opacity="0.6"/>
</g>
<g filter="url(#filter1_b)">
<path fill-rule="evenodd" clip-rule="evenodd" d="M37 1C25.9543 1 17 9.95431 17 21C17 32.0457 25.9543 41 37 41H45C56.0457 41 65 32.0457 65 21C65 9.95431 56.0457 1 45 1H37ZM38 9C31.3726 9 26 14.3726 26 21C26 27.6274 31.3726 33 38 33H44C50.6274 33 56 27.6274 56 21C56 14.3726 50.6274 9 44 9H38Z" fill="#FFF5EA" fill-opacity="0.7"/>
</g>
<path d="M88.0156 14.709H82.2148V12.4434H87.6543V9.47461H82.2148V7.19922H88.0156V3.9082H78.0742V18H88.0156V14.709ZM95.2422 11.3691L95.5254 7.17969H99.0312V14.709H94.3535V14.6309C94.9199 13.9961 95.1348 12.9121 95.2422 11.3691ZM92.9961 18H101.219V20.7832H104.93V14.709H103.172V3.9082H91.9023L91.4629 10.9688C91.3359 12.9414 91.1504 13.8984 90.2129 14.709H89.2852V20.7832H92.9961V18ZM115.398 18H119.539V3.9082H115.594L110.418 11.75H110.34V3.9082H106.199V18H110.145L115.32 10.1582H115.398V18ZM134.93 18V3.9082H130.789V9.25977H125.828V3.9082H121.688V18H125.828V12.5508H130.789V18H134.93ZM137.078 18H143.514C146.648 18 148.758 16.0762 148.758 13.0586C148.758 10.0703 146.521 8.14648 143.23 8.14648H141.219V3.9082H137.078V18ZM141.219 14.875V11.2129H142.381C143.729 11.2129 144.539 11.8281 144.539 13.0488C144.539 14.2598 143.738 14.875 142.41 14.875H141.219ZM154.109 18V3.9082H149.969V18H154.109ZM165.457 18H169.598V3.9082H165.652L160.477 11.75H160.398V3.9082H156.258V18H160.203L165.379 10.1582H165.457V18ZM159.188 0.158203C159.188 2.11133 160.701 3.29297 162.928 3.29297C165.154 3.29297 166.668 2.11133 166.668 0.158203H164.432C164.402 1.03711 163.807 1.48633 162.928 1.48633C162.049 1.48633 161.453 1.03711 161.424 0.158203H159.188ZM89.7539 33.3516C89.7539 30.627 87.5566 28.8789 84.3242 28.8789H82.2148V27.1895H88.5625V23.9082H78.0742V38H84.5098C87.6445 38 89.7539 36.1934 89.7539 33.3516ZM82.2148 34.875V31.7988H83.4746C84.7637 31.7988 85.5352 32.3164 85.5352 33.3418C85.5352 34.3574 84.7637 34.875 83.5039 34.875H82.2148ZM91.3164 23.9082V38H95.457V34.1523H97.4688C100.76 34.1523 102.996 32.1504 102.996 29.0449C102.996 25.9102 100.887 23.9082 97.752 23.9082H91.3164ZM95.457 27.0234H96.6484C97.9961 27.0234 98.8164 27.7168 98.8164 29.0547C98.8164 30.4023 97.9961 31.0957 96.6191 31.0957H95.457V27.0234ZM114.812 34.709H109.012V32.4434H114.451V29.4746H109.012V27.1992H114.812V23.9082H104.871V38H114.812V34.709ZM130.203 38V23.9082H126.062V29.2598H121.102V23.9082H116.961V38H121.102V32.5508H126.062V38H130.203ZM137.43 31.3691L137.713 27.1797H141.219V34.709H136.541V34.6309C137.107 33.9961 137.322 32.9121 137.43 31.3691ZM135.184 38H143.406V40.7832H147.117V34.709H145.359V23.9082H134.09L133.65 30.9688C133.523 32.9414 133.338 33.8984 132.4 34.709H131.473V40.7832H135.184V38Z" fill="black"/>
<defs>
<filter id="filter0_b" x="0" y="-7" width="64" height="56" filterUnits="userSpaceOnUse" color-interpolation-filters="sRGB">
<feFlood flood-opacity="0" result="BackgroundImageFix"/>
<feGaussianBlur in="BackgroundImage" stdDeviation="4"/>
<feComposite in2="SourceAlpha" operator="in" result="effect1_backgroundBlur"/>
<feBlend mode="normal" in="SourceGraphic" in2="effect1_backgroundBlur" result="shape"/>
</filter>
<filter id="filter1_b" x="9" y="-7" width="64" height="56" filterUnits="userSpaceOnUse" color-interpolation-filters="sRGB">
<feFlood flood-opacity="0" result="BackgroundImageFix"/>
<feGaussianBlur in="BackgroundImage" stdDeviation="4"/>
<feComposite in2="SourceAlpha" operator="in" result="effect1_backgroundBlur"/>
<feBlend mode="normal" in="SourceGraphic" in2="effect1_backgroundBlur" result="shape"/>
</filter>
</defs>
</svg>
