<svg width="24" height="24" viewBox="0 0 24 24" fill="none" xmlns="http://www.w3.org/2000/svg">
<circle cx="12" cy="12" r="12" fill="#FFF1DE"/>
<path fill-rule="evenodd" clip-rule="evenodd" d="M8.5 11.0078C7.94771 11.0078 7.5 11.4555 7.5 12.0078C7.5 12.5601 7.94772 13.0078 8.5 13.0078L9.49879 13.0078C9.49919 13.0078 9.4996 13.0078 9.5 13.0078L13.0893 13.0078L12.0543 14.0429C11.6637 14.4334 11.6637 15.0666 12.0543 15.4571C12.4448 15.8476 13.078 15.8476 13.4685 15.4571L16.1996 12.726C16.2484 12.6772 16.2911 12.6246 16.3277 12.5692C16.3282 12.5684 16.3287 12.5677 16.3292 12.5669C16.437 12.4073 16.5 12.2149 16.5 12.0078C16.5 11.8441 16.4607 11.6896 16.3909 11.5532C16.3437 11.4566 16.2799 11.366 16.1995 11.2857L13.4685 8.55461C13.0779 8.16409 12.4448 8.16409 12.0542 8.55461C11.6637 8.94514 11.6637 9.5783 12.0542 9.96883L13.0932 11.0078L9.5 11.0078L8.5 11.0078Z" fill="#F07100"/>
</svg>
