<svg width="16" height="16" viewBox="0 0 16 16" fill="none" xmlns="http://www.w3.org/2000/svg">
<g clip-path="url(#clip0)">
<path d="M9.5998 8H6.3998C4.91459 8 3.49021 8.59 2.44001 9.6402C1.3898 10.6904 0.799805 12.1148 0.799805 13.6V15.2C0.799805 15.4122 0.88409 15.6157 1.03412 15.7657C1.18415 15.9157 1.38763 16 1.5998 16H14.3998C14.612 16 14.8155 15.9157 14.9655 15.7657C15.1155 15.6157 15.1998 15.4122 15.1998 15.2V13.6C15.1998 12.1148 14.6098 10.6904 13.5596 9.6402C12.5094 8.59 11.085 8 9.5998 8Z" fill="#616B7F"/>
<path d="M7.99902 7C9.93202 7 11.499 5.433 11.499 3.5C11.499 1.567 9.93202 0 7.99902 0C6.06603 0 4.49902 1.567 4.49902 3.5C4.49902 5.433 6.06603 7 7.99902 7Z" fill="#616B7F"/>
</g>
<defs>
<clipPath id="clip0">
<rect width="16" height="16" fill="white"/>
</clipPath>
</defs>
</svg>
