<svg width="24" height="17" viewBox="0 0 24 17" fill="none" xmlns="http://www.w3.org/2000/svg">
<path d="M23.4955 2.64545C23.2227 1.60909 22.4045 0.790909 21.3682 0.504545C19.5 0 12 0 12 0C12 0 4.5 0 2.61818 0.504545C1.58182 0.777273 0.777273 1.59545 0.490909 2.64545C0 4.52727 0 8.45455 0 8.45455C0 8.45455 0 12.3818 0.504545 14.2636C0.777273 15.3 1.59545 16.1182 2.63182 16.4045C4.5 16.9091 12 16.9091 12 16.9091C12 16.9091 19.5 16.9091 21.3818 16.4045C22.4182 16.1318 23.2227 15.3136 23.5091 14.2636C24 12.3818 24 8.45455 24 8.45455C24 8.45455 24 4.52727 23.4955 2.64545ZM9.54545 12.0273V4.88182L15.8182 8.45455L9.54545 12.0273Z" fill="black"/>
</svg>
