<svg xmlns="http://www.w3.org/2000/svg" width="118.44" height="117.53" viewBox="0 0 118.44 117.53"><defs><style>.a,.b{fill:#fff;}.b{fill-rule:evenodd;}</style></defs><path class="a" d="M10.474,13.056H6.088a2.2,2.2,0,0,0-2.4,2.317,20.316,20.316,0,0,1-.828,5.3,1.8,1.8,0,0,1-1.49,1.159l.166,1.738a3.031,3.031,0,0,0,3.476-2.235,20.43,20.43,0,0,0,.828-5.711.873.873,0,0,1,.993-.828H8.157v8.773h2.317Zm9.1,8.691H15.523c-.5,0-.662-.248-.662-.828V18.932H19V17.277H14.861V15.7c0-.579.166-.828.662-.828h4.056l.083-1.655a45.743,45.743,0,0,0-4.883-.166,2.046,2.046,0,0,0-2.235,2.069V21.5a2.046,2.046,0,0,0,2.235,2.069,45.741,45.741,0,0,0,4.883-.166Zm10.1-8.691H27.359v4.056H23.634V13.056H21.4V23.567h2.235V18.849h3.725v4.718h2.317Zm6.208-.166c-3.228,0-4.387,1.242-4.387,5.463,0,4.138,1.159,5.38,4.387,5.38,3.311,0,4.552-1.242,4.552-5.38C40.436,14.132,39.195,12.89,35.884,12.89Zm0,1.9c1.573,0,2.069.745,2.069,3.559,0,2.731-.5,3.476-2.069,3.476S33.9,21.084,33.9,18.353C33.9,15.539,34.311,14.794,35.884,14.794Zm8.608,2.566V14.876h4.635l.166-1.821c-1.159,0-2.317-.083-3.559-.083-1.159,0-2.317.083-3.559.083V23.567h.083c1.242.083,2.4.083,3.807.083,2.566,0,3.89-.414,3.89-3.145,0-2.4-.993-3.145-3.89-3.145H44.492Zm0,4.552v-2.98h1.573c1.324,0,1.573.331,1.573,1.49,0,1.242-.248,1.49-1.573,1.49H44.492Zm15.146-8.856H55.252a2.2,2.2,0,0,0-2.4,2.317,20.316,20.316,0,0,1-.828,5.3,1.8,1.8,0,0,1-1.49,1.159l.166,1.738a2.989,2.989,0,0,0,3.476-2.235,23.246,23.246,0,0,0,.91-5.711c0-.579.331-.828.91-.828h1.324v8.773h2.317V13.056Zm7.78,7.78.745,2.731h2.4L67.5,13.718a.785.785,0,0,0-.745-.662H64.521a.785.785,0,0,0-.745.662l-3.062,9.849h2.4l.745-2.731h3.559Zm-.5-1.821H64.356l.828-3.228c.083-.248.166-.662.248-.993h.414c.083.331.166.745.248.993Zm11.753,2.566a30.009,30.009,0,0,1-3.145.166c-1.49,0-1.986-.828-1.986-3.393,0-2.649.5-3.476,1.986-3.476,1.324,0,1.986.083,2.98.083l.166-1.738a14.583,14.583,0,0,0-3.145-.331c-3.228,0-4.387,1.407-4.387,5.463,0,3.973,1.159,5.38,4.387,5.38a12.634,12.634,0,0,0,3.393-.414Zm9.435-6.621v-1.9H79.585v1.9H82.73v8.608h2.317V14.959Zm3.725,1.986v-3.89H89.517V23.567H89.6c1.241.083,2.235.083,4.138.083,2.4,0,3.393-.745,3.393-3.311s-.91-3.393-3.807-3.393Zm0,4.883V18.6h1.49c1.324,0,1.49.414,1.49,1.655,0,1.324-.248,1.573-1.49,1.573h-1.49Z" transform="translate(9.969 93.797)"/><path class="b" d="M21.768,34.958H9.353c-1.573,0-2.235-.662-2.235-2.4v-6.29H20.03V21.136H7.118V16.252c0-1.738.662-2.4,2.235-2.4H21.768l.331-5.3a146.082,146.082,0,0,0-15.064-.5C2.814,8.058,0,10.624,0,14.6V34.13c0,4.056,2.731,6.539,7.035,6.539a146.079,146.079,0,0,0,15.064-.5l-.331-5.214Zm12.415-7.78V31.4a33.948,33.948,0,0,1,1.738-3.973l10.925-19.2h7.035V40.5H47.095V17.163a33.947,33.947,0,0,1-1.738,3.973L34.431,40.5H27.4V8.224h6.787V27.178ZM60.586,40.5h7.2v-12a47.507,47.507,0,0,0,6.125.414c7.946,0,10.76-2.235,10.76-10.594,0-8.277-2.814-10.511-11.753-10.511a104.99,104.99,0,0,0-12.332.414V40.5Zm7.2-17.05v-10.1l4.966-.083c3.725,0,4.8.993,4.8,5.049s-1.076,5.049-4.8,5.132H67.786Zm45.6,24.168h5.049V35.372h-3.89V8.224h-7.118V35.372H96.672V8.224H89.554V40.5h23.258l.579,7.118Z" transform="translate(0 56.831)"/><g transform="translate(9.104)"><path class="b" d="M1.1,38.194c3.311.083,8.608-.745,12.084-1.076A489.34,489.34,0,0,1,89.5,37.2c2.9.166,9.353,1.159,11.836.993-15.312-3.642-33.521-5.3-50.074-5.3C37.1,32.9,14.508,34.3,1.1,38.194ZM10.453,18.33H13.6c0,3.476,0,11.008.083,15.229l5.794-.828V16.509c2.649-1.738,8.442-5.876,10.677-7.284a34.541,34.541,0,0,0,3.642,2.4V4.673c-1.242-.828-2.317-1.655-3.642-2.483-5.049,3.476-13.243,9.1-18.54,12.746C10.287,15.764,10.37,15.681,10.453,18.33Zm81.443,0H88.751c0,3.476,0,11.008-.083,15.229l-5.794-.828V16.509c-2.649-1.738-8.442-5.876-10.594-7.284-1.159.828-2.566,1.738-3.725,2.4V4.673C69.8,3.845,70.873,3.018,72.28,2.19c5.049,3.476,13.16,9.1,18.457,12.746C92.061,15.764,91.978,15.681,91.9,18.33Z" transform="translate(-1.1 15.936)"/><path class="b" d="M23.334,6.7,33.1,13.491l.083,33.272,5.463.414V15.312l2.98-.083c.083-3.476.166-2.4-4.138-5.38L23.334,0,9.1,9.849c-4.3,2.98-4.221,1.9-4.138,5.38l2.98.083V47.177l5.463-.414.083-33.272Z" transform="translate(26.823 0)"/></g></svg>