<svg xmlns="http://www.w3.org/2000/svg" width="512" height="512" viewBox="0 0 512 512">
  <g id="EIRC" transform="translate(-8332 -973)">
    <g id="Сгруппировать_48" data-name="Сгруппировать 48" transform="translate(7265.378 861.024)">
      <path id="Контур_3503" data-name="Контур 3503" d="M1066.622,530.125c41.566-9.979,84.275-15.8,127.062-19.6,42.819-3.842,85.866-5.3,128.887-5.231,43,.756,86.036,2.191,128.771,6.667,21.419,1.641,42.663,4.84,63.934,7.477,10.633,1.347,21.16,3.439,31.732,5.121q15.85,2.587,31.614,5.566c-21.463-1.233-42.71-3.634-64.089-4.881s-42.647-3.176-64.012-4.007l-32-1.684-32.019-1.024-16-.6-16.009-.263-32.017-.449c-42.692-.309-85.378.634-128.039,2.558-10.672.439-21.33,1.068-31.985,1.765-10.675.546-21.316,1.407-31.971,2.234C1109.146,525.255,1087.892,527.478,1066.622,530.125Z" transform="translate(0 1)" fill="#5a5a5d"/>
      <g id="Сгруппировать_47" data-name="Сгруппировать 47">
        <path id="Контур_3504" data-name="Контур 3504" d="M1098.37,411.479h-23.2L1205.083,313.7l13.146,13.3v40.675h-3.866l-14.692-17.991-66.5,50.061V501.433h-34.8Z" transform="translate(0 3)" fill="#5a5a5d"/>
        <path id="Контур_3505" data-name="Контур 3505" d="M1546.874,411.479h23.2L1440.161,313.7,1427.015,327v40.675h3.866l15.466-17.209,65.729,49.279V501.433h34.8Z" transform="translate(0 3)" fill="#5a5a5d"/>
        <path id="Контур_3506" data-name="Контур 3506" d="M1323.395,204.975l-112.9,93.865h23.585l-.773,194.77h31.318V294.93l58-48.5,57.223,50.844V493.611h31.318V297.277h22.812Z" fill="#01427a"/>
      </g>
    </g>
    <rect id="Прямоугольник_38" data-name="Прямоугольник 38" width="512" height="512" transform="translate(8332 973)" fill="none"/>
  </g>
</svg>
